<svg width="25" height="25" viewBox="0 0 25 25" fill="none" xmlns="http://www.w3.org/2000/svg">
<path d="M23.58 10.6105L20.625 10.1275C20.452 9.5345 20.2155 8.9645 19.9195 8.425L21.6445 5.9665C21.784 5.768 21.76 5.4975 21.5885 5.3255L19.644 3.382C19.4705 3.209 19.1975 3.1865 18.9985 3.33L16.577 5.0705C16.0325 4.7695 15.4575 4.5305 14.861 4.357L14.3455 1.414C14.3035 1.175 14.096 1 13.853 1H11.103C10.858 1 10.649 1.1775 10.6095 1.4195L10.1315 4.3465C9.53148 4.519 8.95548 4.7555 8.41298 5.0525L5.99798 3.3275C5.79848 3.185 5.52698 3.208 5.35348 3.3805L3.40998 5.324C3.23848 5.4955 3.21448 5.7655 3.35398 5.964L5.05348 8.3955C4.75098 8.943 4.50998 9.5225 4.33448 10.1255L1.41898 10.611C1.17798 10.651 1.00098 10.86 1.00098 11.104V13.854C1.00098 14.0965 1.17498 14.304 1.41348 14.3465L4.32898 14.8635C4.50348 15.465 4.74448 16.0445 5.04798 16.5935L3.32748 19C3.18548 19.1985 3.20798 19.471 3.38048 19.6445L5.32448 21.59C5.49598 21.7615 5.76648 21.7855 5.96498 21.646L8.39998 19.9405C8.94648 20.241 9.52398 20.4795 10.1225 20.6525L10.6105 23.583C10.65 23.8235 10.8585 24 11.103 24H13.853C14.0955 24 14.303 23.826 14.345 23.5875L14.8675 20.6425C15.467 20.466 16.0415 20.226 16.5825 19.925L19.035 21.6455C19.234 21.786 19.504 21.7615 19.676 21.59L21.62 19.6445C21.793 19.471 21.8155 19.1975 21.672 18.9985L19.923 16.57C20.2195 16.03 20.455 15.459 20.6265 14.866L23.5855 14.3465C23.825 14.3045 23.999 14.0965 23.999 13.854V11.104C23.9995 10.859 23.822 10.65 23.58 10.6105ZM12.5 16C10.567 16 8.99998 14.433 8.99998 12.5C8.99998 10.567 10.567 9 12.5 9C14.433 9 16 10.567 16 12.5C16 14.433 14.433 16 12.5 16Z" fill="#C2C2C2"/>
</svg>
